HIERARCHY
ROOT mixamorig:Hips
{
  OFFSET 0.000000 0.000000 0.000000
  CHANNELS 6 Xposition Yposition Zposition Xrotation Yrotation Zrotation
  JOINT mixamorig:Spine
  {
    OFFSET 0.765617 22.082230 -10.903412
    CHANNELS 3 Xrotation Yrotation Zrotation
    JOINT mixamorig:Spine2
    {
      OFFSET 0.765617 22.082230 -10.903412
      CHANNELS 3 Xrotation Yrotation Zrotation
      JOINT mixamorig:Neck
      {
        OFFSET 0.000000 4.251576 0.000000
        CHANNELS 3 Xrotation Yrotation Zrotation
        JOINT mixamorig:Head
        {
          OFFSET 0.000000 4.317438 0.000000
          CHANNELS 3 Xrotation Yrotation Zrotation
          End Site
          {
            OFFSET 0.000000 1.295231 0.000000
          }
        }
      }
      JOINT mixamorig:LeftShoulder
      {
        OFFSET 16.595861 2.780659 -2.294304
        CHANNELS 3 Xrotation Yrotation Zrotation
        JOINT mixamorig:LeftArm
        {
          OFFSET 10.000000 -2.000000 0.000000
          CHANNELS 3 Xrotation Yrotation Zrotation
          JOINT mixamorig:LeftForeArm
          {
            OFFSET 23.403406 0.000000 0.000000
            CHANNELS 3 Xrotation Yrotation Zrotation
            JOINT mixamorig:LeftHand
            {
              OFFSET 24.866098 0.000000 0.000000
              CHANNELS 3 Xrotation Yrotation Zrotation
              End Site
              {
                OFFSET 7.459829 0.000000 0.000000
              }
            }
          }
        }
      }
      JOINT mixamorig:RightShoulder
      {
        OFFSET -16.595861 2.780659 2.294304
        CHANNELS 3 Xrotation Yrotation Zrotation
        JOINT mixamorig:RightArm
        {
          OFFSET -10.000000 -2.000000 0.000000
          CHANNELS 3 Xrotation Yrotation Zrotation
          JOINT mixamorig:RightForeArm
          {
            OFFSET -23.403406 0.000000 0.000000
            CHANNELS 3 Xrotation Yrotation Zrotation
            JOINT mixamorig:RightHand
            {
              OFFSET -24.866098 0.000000 0.000000
              CHANNELS 3 Xrotation Yrotation Zrotation
              End Site
              {
                OFFSET -7.459829 0.000000 0.000000
              }
            }
          }
        }
      }
    }
  }
  JOINT mixamorig:LeftUpLeg
  {
    OFFSET 10.049852 -0.406182 2.491387
    CHANNELS 3 Xrotation Yrotation Zrotation
    JOINT mixamorig:LeftLeg
    {
      OFFSET 1.911105 -34.452642 -0.244051
      CHANNELS 3 Xrotation Yrotation Zrotation
      JOINT mixamorig:LeftFoot
      {
        OFFSET -0.627677 -34.679860 23.152071
        CHANNELS 3 Xrotation Yrotation Zrotation
        JOINT mixamorig:LeftToeBase
        {
          OFFSET -0.235927 -6.465439 -6.132764
          CHANNELS 3 Xrotation Yrotation Zrotation
          End Site
          {
            OFFSET -0.070778 -1.939632 -1.839829
          }
        }
      }
    }
  }
  JOINT mixamorig:RightUpLeg
  {
    OFFSET -10.049852 0.406182 -2.491387
    CHANNELS 3 Xrotation Yrotation Zrotation
    JOINT mixamorig:RightLeg
    {
      OFFSET 2.009936 -33.278056 8.900986
      CHANNELS 3 Xrotation Yrotation Zrotation
      JOINT mixamorig:RightFoot
      {
        OFFSET -5.479649 -37.071325 18.297414
        CHANNELS 3 Xrotation Yrotation Zrotation
        JOINT mixamorig:RightToeBase
        {
          OFFSET -3.341755 -2.842212 -7.760339
          CHANNELS 3 Xrotation Yrotation Zrotation
          End Site
          {
            OFFSET -1.002526 -0.852664 -2.328102
          }
        }
      }
    }
  }
}
MOTION
Frames: 12
Frame Time: 0.033333
0.060420 0.141283 0.000000 15.000000 -0.811745 -0.240352 8.499149 -0.177854 0.264276 -26.008354 8.810509 0.652938 1.287647 -5.751553 8.963538 0.354754 -5.880718 8.789801 0.000000 0.000000 0.000000 4.234847 -6.177081 -68.456857 -0.691673 5.683062 -12.924959 0.000000 0.000000 0.000000 0.000000 0.000000 0.000000 -3.157848 -4.090766 75.201809 0.452939 -31.052693 -1.582131 0.000000 0.000000 0.000000 -15.034290 -0.751274 0.691915 0.237232 0.268571 0.409674 -0.619908 2.112888 -2.243828 0.000000 0.000000 0.000000 -14.492421 -0.750727 0.386434 -0.014329 0.237906 0.479390 -0.067214 0.776994 -0.256062 0.000000 0.000000 0.000000
0.111294 0.141251 0.000000 15.000000 -0.810275 -0.235539 8.491446 -0.177663 0.264080 -26.008061 8.819587 0.649542 1.279942 -5.805459 8.951646 0.339880 -5.932786 8.777016 0.000000 0.000000 0.000000 3.980810 -5.810295 -68.375137 -0.791482 6.487503 -12.981735 0.000000 0.000000 0.000000 0.000000 0.000000 0.000000 -3.283194 -4.250488 75.222271 0.485410 -31.182033 -1.685685 0.000000 0.000000 0.000000 -14.824626 -0.734115 0.761544 -0.054028 0.232935 0.350616 -0.710420 1.681232 -1.773206 0.000000 0.000000 0.000000 -14.460124 -0.728968 0.432181 -0.110686 0.234553 0.441750 -0.030733 0.871376 -0.306396 0.000000 0.000000 0.000000
0.292579 0.141555 0.000000 15.000000 -0.845656 -0.361140 8.596994 -0.179817 0.267922 -26.008257 8.818029 0.760187 1.568054 -5.017077 9.125270 0.732394 -5.201140 8.953277 0.000000 0.000000 0.000000 6.828517 -9.868574 -69.283550 0.111534 -1.101472 -11.780153 0.000000 0.000000 0.000000 0.000000 0.000000 0.000000 -1.861668 -2.440795 74.648484 0.095047 -29.197224 -0.360107 0.000000 0.000000 0.000000 -14.117059 -0.636802 1.334301 -0.749545 -0.084196 -0.131169 -2.243359 1.802944 -1.850988 0.000000 0.000000 0.000000 -13.465472 -0.988242 -0.366744 -0.112283 0.552224 1.079108 -0.347538 0.408893 -0.001419 0.000000 0.000000 0.000000
0.562357 0.141923 0.000000 15.000000 -0.870325 -0.454276 8.621406 -0.179824 0.270031 -26.005651 8.902978 0.852964 1.665542 -4.605085 9.096513 0.897945 -4.809722 8.933292 0.000000 0.000000 0.000000 7.239550 -10.418142 -69.515772 0.094640 -0.962132 -11.314117 0.000000 0.000000 0.000000 0.000000 0.000000 0.000000 -1.683487 -2.228661 74.166173 -0.003846 -28.617879 0.016720 0.000000 0.000000 0.000000 -12.433826 -0.471314 2.183635 -2.810875 -0.379990 -0.613668 -3.430404 -0.380149 0.571582 0.000000 0.000000 0.000000 -12.277988 -1.020357 -0.656863 -0.703983 0.714938 1.216937 -0.308175 0.292404 0.023816 0.000000 0.000000 0.000000
0.829434 0.142221 0.000000 15.000000 -0.898895 -0.565333 8.619142 -0.178909 0.272103 -26.003034 8.987152 0.967401 1.562540 -4.261681 8.911803 0.869321 -4.451816 8.771625 0.000000 0.000000 0.000000 7.035366 -10.081631 -69.745096 -0.071875 0.721453 -11.162040 0.000000 0.000000 0.000000 0.000000 0.000000 0.000000 -1.733023 -2.313104 73.654069 -0.074005 -28.542799 0.294951 0.000000 0.000000 0.000000 -11.018426 -0.376675 2.730015 -4.239230 -0.283944 -0.498463 -2.733079 0.035674 0.108664 0.000000 0.000000 0.000000 -11.235386 -0.951005 -0.668364 -1.220575 0.653254 0.933106 -0.104626 -0.561297 0.248484 0.000000 0.000000 0.000000
1.111982 0.142347 0.000000 15.000000 -0.933970 -0.700977 8.622453 -0.177971 0.274715 -26.002492 9.004955 1.103297 1.528129 -4.255341 8.785694 0.846285 -4.438055 8.648746 0.000000 0.000000 0.000000 6.846958 -9.755823 -70.055512 -0.082717 0.848250 -10.810633 0.000000 0.000000 0.000000 0.000000 0.000000 0.000000 -1.619751 -2.171602 73.424027 -0.109250 -29.051061 0.500101 0.000000 0.000000 0.000000 -8.356112 -0.238088 3.458984 -6.779014 -0.369876 -0.657706 -1.745040 2.598605 -2.764524 0.000000 0.000000 0.000000 -10.552498 -0.863768 -0.563782 -1.990956 0.511548 0.416670 0.188942 -1.517372 0.469031 0.000000 0.000000 0.000000
1.560931 0.143260 0.000000 15.000000 -0.974978 -0.863205 8.585437 -0.175656 0.277221 -26.000303 9.073862 1.273535 1.733282 -4.011064 8.670945 1.094814 -4.226193 8.529807 0.000000 0.000000 0.000000 5.669392 -8.063762 -70.121753 -0.327553 3.274997 -11.082211 0.000000 0.000000 0.000000 0.000000 0.000000 0.000000 -2.786391 -3.739069 73.293227 0.279299 -32.712147 -0.704714 0.000000 0.000000 0.000000 -8.083974 -0.195583 4.000461 -6.318320 -0.440302 -0.743693 -2.231856 3.070424 -3.281587 0.000000 0.000000 0.000000 -10.262289 -0.816216 -0.489635 -2.182427 0.330143 0.006203 0.331357 -1.604153 0.437438 0.000000 0.000000 0.000000
2.134471 0.144427 0.000000 15.000000 -1.001129 -0.967662 8.547390 -0.173758 0.278603 -25.995057 9.240651 1.389480 1.881824 -3.646616 8.590624 1.303693 -3.886715 8.455853 0.000000 0.000000 0.000000 4.095747 -5.859882 -69.878090 -0.608208 5.855365 -11.847529 0.000000 0.000000 0.000000 0.000000 0.000000 0.000000 -4.745589 -6.362472 73.412544 1.099735 -37.231866 -3.259201 0.000000 0.000000 0.000000 -9.264937 -0.239057 3.772337 -4.494116 -0.396783 -0.657033 -1.525641 3.161242 -3.361383 0.000000 0.000000 0.000000 -10.575783 -0.840580 -0.496400 -1.709259 0.054907 -0.389606 0.712897 -1.322601 0.167440 0.000000 0.000000 0.000000
2.708178 0.144870 0.000000 15.000000 -1.035421 -1.100249 8.549095 -0.172799 0.281123 -25.992751 9.314870 1.524323 2.099075 -3.409268 8.506327 1.559929 -3.682784 8.369358 0.000000 0.000000 0.000000 4.001388 -5.737521 -69.758528 -0.653713 5.918570 -12.578063 0.000000 0.000000 0.000000 0.000000 0.000000 0.000000 -4.858598 -6.524670 73.319612 1.305571 -37.804445 -3.806820 0.000000 0.000000 0.000000 -9.712484 -0.276557 3.373345 -3.739788 -0.306655 -0.520820 -0.999977 4.118072 -4.386611 0.000000 0.000000 0.000000 -10.819993 -0.921087 -0.668324 -1.301452 0.041949 -0.298258 0.645892 -1.007220 0.084244 0.000000 0.000000 0.000000
3.277197 0.144652 0.000000 15.000000 -1.089616 -1.309418 8.558654 -0.171482 0.285218 -25.992670 9.318332 1.732050 2.184489 -3.247029 8.507323 1.669035 -3.535148 8.373370 0.000000 0.000000 0.000000 3.960806 -5.717006 -69.411856 -0.720998 6.011332 -13.678715 0.000000 0.000000 0.000000 0.000000 0.000000 0.000000 -4.843377 -6.510462 73.265377 1.420204 -38.131206 -4.105587 0.000000 0.000000 0.000000 -7.028982 -0.204503 3.361204 -7.047515 -0.381011 -0.671010 -1.149275 5.215526 -5.580204 0.000000 0.000000 0.000000 -10.494841 -0.930551 -0.755246 -1.395480 0.102224 -0.205392 0.887357 -1.458095 0.138578 0.000000 0.000000 0.000000
3.811480 0.144344 0.000000 15.000000 -1.136098 -1.487605 8.588640 -0.170982 0.289082 -25.995348 9.234190 1.902733 2.273132 -3.035110 8.495681 1.789738 -3.338459 8.367525 0.000000 0.000000 0.000000 4.262400 -6.174886 -69.188975 -0.698741 5.458516 -14.597688 0.000000 0.000000 0.000000 0.000000 0.000000 0.000000 -4.556280 -6.126437 73.250488 1.258514 -37.690141 -3.675236 0.000000 0.000000 0.000000 -4.118607 -0.136301 3.186206 -9.824710 -0.395946 -0.731801 -1.299199 6.993689 -7.508917 0.000000 0.000000 0.000000 -9.386511 -0.830006 -0.691689 -2.238229 0.070374 -0.501503 1.065576 -2.362250 0.378886 0.000000 0.000000 0.000000
4.275582 0.143645 0.000000 15.000000 -1.187683 -1.685655 8.624487 -0.170490 0.293445 -26.001192 9.048714 2.089236 2.376513 -2.762714 8.474252 1.934712 -3.083776 8.354564 0.000000 0.000000 0.000000 5.091539 -7.335538 -69.420877 -0.470838 3.604790 -14.680939 0.000000 0.000000 0.000000 0.000000 0.000000 0.000000 -4.079801 -5.479297 73.283806 1.029061 -36.533564 -3.045739 0.000000 0.000000 0.000000 -2.669010 -0.096462 3.147443 -10.452875 -0.201029 -0.501926 -1.045596 6.665596 -7.133651 0.000000 0.000000 0.000000 -7.108138 -0.633730 -0.583201 -4.169223 0.031441 -1.097576 1.109205 -3.427297 0.732100 0.000000 0.000000 0.000000
